HIERARCHY
ROOT Hips
{
	OFFSET 0.00000 0.00000 0.00000
	CHANNELS 6 Xposition Yposition Zposition Zrotation Yrotation Xrotation 
	JOINT LHipJoint
	{
		OFFSET 0 0 0
		CHANNELS 3 Zrotation Yrotation Xrotation
		JOINT LeftUpLeg
		{
			OFFSET 2.36090 -1.39315 1.24752
			CHANNELS 3 Zrotation Yrotation Xrotation
			JOINT LeftLeg
			{
				OFFSET 2.06810 -5.68207 0.00000
				CHANNELS 3 Zrotation Yrotation Xrotation
				JOINT LeftFoot
				{
					OFFSET 2.46631 -6.77613 0.00000
					CHANNELS 3 Zrotation Yrotation Xrotation
					JOINT LeftToeBase
					{
						OFFSET 0.26031 -0.71520 1.99545
						CHANNELS 3 Zrotation Yrotation Xrotation
						End Site
						{
							OFFSET 0.00000 -0.00000 1.05957
						}
					}
				}
			}
		}
	}
	JOINT RHipJoint
	{
		OFFSET 0 0 0
		CHANNELS 3 Zrotation Yrotation Xrotation
		JOINT RightUpLeg
		{
			OFFSET -2.25243 -1.39315 1.24752
			CHANNELS 3 Zrotation Yrotation Xrotation
			JOINT RightLeg
			{
				OFFSET -2.17343 -5.97145 0.00000
				CHANNELS 3 Zrotation Yrotation Xrotation
				JOINT RightFoot
				{
					OFFSET -2.52372 -6.93386 0.00000
					CHANNELS 3 Zrotation Yrotation Xrotation
					JOINT RightToeBase
					{
						OFFSET -0.22538 -0.61923 2.11447
						CHANNELS 3 Zrotation Yrotation Xrotation
						End Site
						{
							OFFSET -0.00000 -0.00000 1.10506
						}
					}
				}
			}
		}
	}
	JOINT LowerBack
	{
		OFFSET 0 0 0
		CHANNELS 3 Zrotation Yrotation Xrotation
		JOINT Spine
		{
			OFFSET 0.01594 2.13103 0.08007
			CHANNELS 3 Zrotation Yrotation Xrotation
			JOINT Spine1
			{
				OFFSET 0.01393 2.09723 0.18338
				CHANNELS 3 Zrotation Yrotation Xrotation
				JOINT Neck
				{
					OFFSET 0 0 0
					CHANNELS 3 Zrotation Yrotation Xrotation
					JOINT Neck1
					{
						OFFSET 0.05351 1.38915 0.32494
						CHANNELS 3 Zrotation Yrotation Xrotation
						JOINT Head
						{
							OFFSET 0.00711 1.45992 -0.21666
							CHANNELS 3 Zrotation Yrotation Xrotation
							End Site
							{
								OFFSET -0.00433 1.47702 -0.11056
							}
						}
					}
				}
				JOINT LeftShoulder
				{
					OFFSET 0 0 0
					CHANNELS 3 Zrotation Yrotation Xrotation
					JOINT LeftArm
					{
						OFFSET 2.87198 0.92249 0.11132
						CHANNELS 3 Zrotation Yrotation Xrotation
						JOINT LeftForeArm
						{
							OFFSET 5.52731 -0.00000 0.00000
							CHANNELS 3 Zrotation Yrotation Xrotation
							JOINT LeftHand
							{
								OFFSET 3.11059 -0.00000 0.00000
								CHANNELS 3 Zrotation Yrotation Xrotation
								JOINT LeftFingerBase
								{
									OFFSET 0 0 0
									CHANNELS 3 Zrotation Yrotation Xrotation
									JOINT LeftHandIndex1
									{
										OFFSET 0.41963 -0.00000 0.00000
										CHANNELS 3 Zrotation Yrotation Xrotation
										End Site
										{
											OFFSET 0.33831 -0.00000 0.00000
										}
									}
								}
								JOINT LThumb
								{
									OFFSET 0 0 0
									CHANNELS 3 Zrotation Yrotation Xrotation
									End Site
									{
										OFFSET 0.34348 -0.00000 0.34348
									}
								}
							}
						}
					}
				}
				JOINT RightShoulder
				{
					OFFSET 0 0 0
					CHANNELS 3 Zrotation Yrotation Xrotation
					JOINT RightArm
					{
						OFFSET -2.94710 0.68072 0.32187
						CHANNELS 3 Zrotation Yrotation Xrotation
						JOINT RightForeArm
						{
							OFFSET -5.25396 -0.00000 -0.00000
							CHANNELS 3 Zrotation Yrotation Xrotation
							JOINT RightHand
							{
								OFFSET -3.10567 -0.00000 0.00000
								CHANNELS 3 Zrotation Yrotation Xrotation
								JOINT RightFingerBase
								{
									OFFSET 0 0 0
									CHANNELS 3 Zrotation Yrotation Xrotation
									JOINT RightHandIndex1
									{
										OFFSET -0.49868 -0.00000 0.00000
										CHANNELS 3 Zrotation Yrotation Xrotation
										End Site
										{
											OFFSET -0.40204 -0.00000 0.00000
										}
									}
								}
								JOINT RThumb
								{
									OFFSET 0 0 0
									CHANNELS 3 Zrotation Yrotation Xrotation
									End Site
									{
										OFFSET -0.40818 -0.00000 0.40818
									}
								}
							}
						}
					}
				}
			}
		}
	}
}
MOTION
Frames: 13
Frame Time: .0083333
-4.4028 15.4102 41.2434 181.4610 4.6737 -160.3240 0.0000 0.0000 0.0000 -16.6509 -20.3893 -20.2434 0.9870 6.3234 17.7255 0.2038 5.9202 -12.7075 0.3696 -3.9048 -10.8089 0.0000 0.0000 0.0000 14.1372 29.5320 -28.3792 -3.0004 -10.6957 31.2603 -0.7389 -1.9297 -17.0466 -0.4549 4.3270 -11.9985 -1.4234 1.2014 -20.4583 -0.9618 2.9707 -5.9540 0.5373 1.8950 4.9599 6.5007 6.5841 -21.6063 -4.8424 7.9961 24.4884 -1.5880 3.3546 12.1308 -0.0000 0.0000 0.0000 -81.7929 10.5742 37.2156 17.3459 -27.3115 -4.2448 -0.0000 0.0000 -47.3316 29.1417 -4.5239 -2.5180 -7.1250 0.0000 -0.0000 1.8634 24.8035 -0.9103 -0.0000 0.0000 0.0000 82.5797 -3.8642 34.9803 -23.5581 34.6935 -7.4536 0.0000 -0.0000 -5.9318 -20.1110 -14.3607 5.1893 7.1250 -0.0000 -0.0000 6.8785 -45.1188 -0.0203
-4.4134 15.4084 41.2488 181.4810 4.5639 -160.2520 0.0000 0.0000 0.0000 -16.6103 -20.4533 -20.5776 1.0223 6.4322 18.0438 0.2082 5.8241 -12.6868 0.3880 -4.0000 -11.0767 0.0000 0.0000 0.0000 14.0601 29.6012 -28.4865 -3.0099 -10.7111 31.3115 -0.7348 -2.0917 -17.0800 -0.4617 4.3587 -12.0881 -1.4537 1.2138 -20.3934 -1.0136 2.9902 -5.9338 0.5017 1.9023 4.9491 6.4221 6.5651 -21.7245 -4.8364 7.9949 24.4136 -1.5694 3.3504 12.1203 -0.0000 0.0000 0.0000 -81.7710 10.6652 36.7922 17.5046 -27.5181 -4.3179 -0.0000 0.0000 -48.3984 29.3063 -4.3037 -2.4120 -7.1250 0.0000 -0.0000 1.9978 25.0472 -0.9647 -0.0000 0.0000 0.0000 82.5565 -4.0303 34.7742 -23.0344 34.1265 -7.1576 0.0000 -0.0000 -5.8785 -20.1520 -14.4631 5.2368 7.1250 -0.0000 -0.0000 6.8628 -45.2309 -0.0393
-4.4241 15.4063 41.2546 181.5150 4.4384 -160.1810 0.0000 0.0000 0.0000 -16.5491 -20.5349 -20.9343 1.0629 6.5545 18.4021 0.2137 5.7237 -12.6809 0.4054 -4.0875 -11.3231 0.0000 0.0000 0.0000 14.0008 29.6633 -28.5862 -3.0176 -10.7235 31.3531 -0.7305 -2.2531 -17.1133 -0.4680 4.3877 -12.1701 -1.4800 1.2226 -20.3224 -1.0551 3.0025 -5.9104 0.4729 1.9057 4.9384 6.3349 6.5437 -21.8431 -4.8266 7.9922 24.3366 -1.5483 3.3452 12.1082 -0.0000 0.0000 0.0000 -81.7490 10.7342 36.3861 17.6504 -27.7072 -4.3855 -0.0000 0.0000 -49.2243 29.5342 -4.1945 -2.3729 -7.1250 0.0000 -0.0000 2.1744 25.1614 -1.0443 -0.0000 0.0000 0.0000 82.5185 -4.2067 34.5607 -22.5161 33.5554 -6.8690 0.0000 -0.0000 -5.8532 -20.1473 -14.6222 5.2915 7.1250 -0.0000 -0.0000 6.9016 -45.3967 -0.0679
-4.4350 15.4039 41.2607 181.5650 4.2943 -160.1130 0.0000 0.0000 0.0000 -16.4621 -20.6404 -21.3118 1.1094 6.6919 18.8057 0.2202 5.6236 -12.6935 0.4207 -4.1629 -11.5353 0.0000 0.0000 0.0000 13.9673 29.7059 -28.6772 -3.0232 -10.7325 31.3830 -0.7261 -2.4068 -17.1431 -0.4734 4.4129 -12.2413 -1.4878 1.2351 -20.2361 -1.0999 3.0154 -5.8877 0.4295 1.9093 4.9200 6.2660 6.5236 -21.9677 -4.8162 7.9846 24.2648 -1.5307 3.3397 12.1000 0.0000 0.0000 0.0000 -81.6999 10.7771 36.0199 17.7795 -27.8739 -4.4457 -0.0000 0.0000 -49.8052 29.8111 -4.1868 -2.3953 -7.1250 0.0000 -0.0000 2.3826 25.1569 -1.1447 0.0000 0.0000 0.0000 82.5002 -4.3841 34.3071 -21.9838 32.9587 -6.5770 0.0000 -0.0000 -5.8140 -20.1241 -14.8057 5.3494 7.1250 -0.0000 -0.0000 6.9633 -45.5857 -0.1012
-4.4461 15.4011 41.2672 181.6330 4.1317 -160.0510 0.0000 0.0000 0.0000 -16.3480 -20.7701 -21.7065 1.1623 6.8441 19.2543 0.2275 5.5235 -12.7205 0.4336 -4.2257 -11.7125 0.0000 0.0000 0.0000 13.9619 29.7352 -28.7540 -3.0265 -10.7378 31.4007 -0.7214 -2.5585 -17.1696 -0.4781 4.4344 -12.3020 -1.4855 1.2442 -20.1419 -1.1317 3.0196 -5.8607 0.3920 1.9082 4.9019 6.1795 6.4970 -22.0803 -4.7964 7.9719 24.1844 -1.5079 3.3317 12.0843 -0.0000 -0.0000 0.0000 -81.6561 10.7922 35.6695 17.8868 -28.0120 -4.4960 -0.0000 0.0000 -50.1326 30.1125 -4.2601 -2.4669 -7.1250 0.0000 -0.0000 2.6045 25.0579 -1.2575 -0.0000 -0.0000 0.0000 82.4753 -4.5542 34.0276 -21.4329 32.3302 -6.2799 0.0000 -0.0000 -5.7482 -20.0960 -15.0217 5.4170 7.1250 -0.0000 -0.0000 7.0374 -45.8077 -0.1410
-4.4572 15.3978 41.2740 181.7230 3.9500 -159.9930 0.0000 0.0000 0.0000 -16.2011 -20.9248 -22.1179 1.2215 7.0100 19.7451 0.2356 5.4248 -12.7615 0.4449 -4.2798 -11.8651 0.0000 0.0000 0.0000 13.9901 29.7511 -28.8162 -3.0274 -10.7393 31.4056 -0.7165 -2.7070 -17.1939 -0.4829 4.4559 -12.3631 -1.4633 1.2553 -20.0375 -1.1589 3.0204 -5.8277 0.3470 1.9048 4.8856 6.1127 6.4771 -22.2102 -4.7841 7.9636 24.1079 -1.4899 3.3265 12.0752 0.0000 0.0000 0.0000 -81.5953 10.7774 35.3598 17.9779 -28.1289 -4.5388 -0.0000 0.0000 -50.2167 30.3934 -4.3790 -2.5642 -7.1250 0.0000 -0.0000 2.8079 24.9064 -1.3658 0.0000 0.0000 0.0000 82.4661 -4.7026 33.6981 -20.8501 31.6529 -5.9711 0.0000 -0.0000 -5.6305 -20.0903 -15.2559 5.4973 7.1250 -0.0000 -0.0000 7.0960 -46.0515 -0.1851
-4.4684 15.3941 41.2810 181.8330 3.7510 -159.9400 0.0000 0.0000 0.0000 -16.0261 -21.0996 -22.5422 1.2865 7.1872 20.2711 0.2443 5.3302 -12.8160 0.4554 -4.3291 -12.0043 0.0000 0.0000 0.0000 14.0477 29.7587 -28.8627 -3.0261 -10.7373 31.3988 -0.7108 -2.8605 -17.2145 -0.4869 4.4744 -12.4153 -1.4312 1.2633 -19.9253 -1.1752 3.0133 -5.7915 0.3060 1.8971 4.8684 6.0365 6.4489 -22.3233 -4.7699 7.9465 24.0237 -1.4718 3.3170 12.0587 0.0000 0.0000 0.0000 -81.5277 10.7461 35.0928 18.0547 -28.2272 -4.5751 -0.0000 0.0000 -50.0779 30.6446 -4.4940 -2.6578 -7.1250 0.0000 -0.0000 2.9887 24.7602 -1.4641 0.0000 0.0000 0.0000 82.4623 -4.8338 33.3228 -20.2390 30.9292 -5.6537 0.0000 -0.0000 -5.4631 -20.0971 -15.4838 5.5790 7.1250 -0.0000 -0.0000 7.1423 -46.2902 -0.2286
-4.4794 15.3900 41.2884 181.9610 3.5343 -159.8890 0.0000 0.0000 0.0000 -15.8214 -21.2906 -22.9819 1.3564 7.3721 20.8227 0.2548 5.2281 -12.8947 0.4609 -4.3548 -12.0771 0.0000 0.0000 0.0000 14.1316 29.7604 -28.9010 -3.0231 -10.7323 31.3824 -0.7040 -3.0232 -17.2292 -0.4913 4.4941 -12.4711 -1.3881 1.2695 -19.8085 -1.1829 2.9998 -5.7481 0.2664 1.8856 4.8566 5.9679 6.4231 -22.4570 -4.7643 7.9323 23.9455 -1.4571 3.3080 12.0495 0.0000 0.0000 0.0000 -81.4502 10.6844 34.8734 18.1130 -28.3016 -4.6027 -0.0000 0.0000 -49.7305 30.8756 -4.6047 -2.7481 -7.1250 0.0000 -0.0000 3.1540 24.6191 -1.5556 0.0000 0.0000 0.0000 82.4663 -4.9348 32.8976 -19.6000 30.1574 -5.3289 0.0000 -0.0000 -5.2482 -20.1252 -15.6680 5.6518 7.1250 -0.0000 -0.0000 7.1592 -46.4860 -0.2639
-4.4902 15.3855 41.2962 182.1050 3.3034 -159.8350 0.0000 0.0000 0.0000 -15.5909 -21.4910 -23.4351 1.4297 7.5607 21.3875 0.2657 5.1211 -12.9733 0.4683 -4.3892 -12.1742 0.0000 0.0000 0.0000 14.2340 29.7626 -28.9370 -3.0188 -10.7255 31.3596 -0.6963 -3.1956 -17.2409 -0.4957 4.5139 -12.5272 -1.3439 1.2716 -19.6948 -1.1771 2.9789 -5.6982 0.2391 1.8699 4.8526 5.8957 6.3966 -22.5885 -4.7637 7.9198 23.8606 -1.4434 3.2989 12.0375 -0.0000 0.0000 0.0000 -81.3704 10.5994 34.7083 18.1551 -28.3553 -4.6227 -0.0000 0.0000 -49.2090 31.1069 -4.6736 -2.8147 -7.1250 0.0000 -0.0000 3.3218 24.5261 -1.6458 -0.0000 0.0000 0.0000 82.4660 -5.0209 32.4283 -18.9512 29.3580 -5.0069 0.0000 -0.0000 -4.9873 -20.1597 -15.8252 5.7172 7.1250 -0.0000 -0.0000 7.1643 -46.6545 -0.2940
-4.5008 15.3808 41.3046 182.2570 3.0623 -159.7770 0.0000 0.0000 0.0000 -15.3424 -21.6985 -23.8977 1.5052 7.7488 21.9535 0.2766 5.0088 -13.0497 0.4759 -4.4242 -12.2732 0.0000 0.0000 0.0000 14.3447 29.7646 -28.9783 -3.0141 -10.7178 31.3339 -0.6877 -3.3795 -17.2506 -0.5011 4.5382 -12.5960 -1.3014 1.2727 -19.5773 -1.1671 2.9571 -5.6503 0.2170 1.8539 4.8442 5.8258 6.3642 -22.7172 -4.7653 7.8987 23.7795 -1.4327 3.2857 12.0262 0.0000 -0.0000 0.0000 -81.2770 10.4914 34.6054 18.1707 -28.3752 -4.6301 -0.0000 0.0000 -48.5437 31.3063 -4.7160 -2.8625 -7.1250 0.0000 -0.0000 3.4673 24.4654 -1.7230 0.0000 -0.0000 0.0000 82.4857 -5.0798 31.8651 -18.2661 28.4965 -4.6755 0.0000 -0.0000 -4.6413 -20.1966 -15.9292 5.7650 7.1250 -0.0000 -0.0000 7.1547 -46.7681 -0.3137
-4.5113 15.3758 41.3132 182.4120 2.8203 -159.7140 0.0000 0.0000 0.0000 -15.0844 -21.9072 -24.3608 1.5809 7.9322 22.5085 0.2876 4.8945 -13.1243 0.4846 -4.4640 -12.3859 0.0000 0.0000 0.0000 14.4550 29.7747 -29.0255 -3.0092 -10.7100 31.3080 -0.6786 -3.5686 -17.2616 -0.5070 4.5644 -12.6701 -1.2724 1.2694 -19.4708 -1.1448 2.9305 -5.5943 0.2151 1.8350 4.8488 5.7372 6.3270 -22.8497 -4.7614 7.8758 23.6931 -1.4171 3.2708 12.0123 0.0000 -0.0000 0.0000 -81.1875 10.3598 34.5513 18.1705 -28.3750 -4.6300 -0.0000 0.0000 -47.7856 31.4588 -4.7360 -2.8918 -7.1250 0.0000 -0.0000 3.5794 24.4332 -1.7816 0.0000 -0.0000 0.0000 82.5002 -5.1073 31.2346 -17.5659 27.5978 -4.3463 0.0000 -0.0000 -4.2179 -20.2247 -15.9884 5.7944 7.1250 -0.0000 -0.0000 7.1424 -46.8335 -0.3248
-4.5216 15.3708 41.3220 182.5670 2.5812 -159.6480 0.0000 0.0000 0.0000 -14.8234 -22.1133 -24.8173 1.6552 8.1075 23.0410 0.2978 4.7815 -13.1890 0.4945 -4.5083 -12.5114 0.0000 0.0000 0.0000 14.5615 29.7842 -29.0823 -3.0046 -10.7025 31.2831 -0.6692 -3.7574 -17.2707 -0.5140 4.5954 -12.7579 -1.2575 1.2654 -19.3657 -1.1201 2.9071 -5.5454 0.2243 1.8183 4.8456 5.6698 6.2967 -22.9619 -4.7664 7.8580 23.6072 -1.4079 3.2591 11.9964 0.0000 0.0000 0.0000 -81.0842 10.2258 34.5615 18.1543 -28.3543 -4.6223 -0.0000 0.0000 -46.9821 31.5422 -4.7704 -2.9222 -7.1250 0.0000 -0.0000 3.6390 24.3881 -1.8152 0.0000 0.0000 0.0000 82.5201 -5.1516 30.5468 -16.8781 26.6967 -4.0324 0.0000 -0.0000 -3.7459 -20.2870 -15.9701 5.8073 7.1250 -0.0000 -0.0000 7.0798 -46.8230 -0.3201
-4.5318 15.3658 41.3308 182.7170 2.3532 -159.5780 0.0000 0.0000 0.0000 -14.5695 -22.3053 -25.2615 1.7266 8.2717 23.5423 0.3076 4.6663 -13.2453 0.5015 -4.5401 -12.6013 0.0000 0.0000 0.0000 14.6585 29.7949 -29.1480 -3.0001 -10.6952 31.2588 -0.6599 -3.9373 -17.2771 -0.5207 4.6247 -12.8413 -1.2661 1.2595 -19.2650 -1.0897 2.8862 -5.4993 0.2538 1.8031 4.8404 5.5875 6.2590 -23.0566 -4.7581 7.8317 23.5188 -1.3934 3.2440 11.9743 0.0000 0.0000 0.0000 -80.9811 10.0810 34.6186 18.1178 -28.3077 -4.6049 -0.0000 0.0000 -46.1620 31.5424 -4.8282 -2.9575 -7.1250 0.0000 -0.0000 3.6349 24.3206 -1.8188 0.0000 0.0000 0.0000 82.5298 -5.2177 29.8255 -16.2232 25.8224 -3.7427 0.0000 -0.0000 -3.2366 -20.3590 -15.9161 5.8105 7.1250 -0.0000 -0.0000 6.9995 -46.7764 -0.3083
